<svg width="20" height="20" viewBox="0 0 20 20" fill="none" xmlns="http://www.w3.org/2000/svg">
<g clip-path="url(#clip0_2_51)">
<path d="M18.4838 16.4766L16.035 14.0266C16.8874 12.739 17.3142 11.2512 17.3138 9.76797C17.3148 7.79397 16.5584 5.81118 15.0514 4.30496C13.5452 2.79817 11.563 2.04036 9.5896 2.04157C7.6154 2.04037 5.63341 2.79817 4.1274 4.30477C2.62019 5.81118 1.863 7.79358 1.86359 9.76797C1.86298 11.742 2.61999 13.7248 4.1274 15.2302C5.63359 16.7364 7.61599 17.4924 9.5896 17.492C11.0728 17.4924 12.561 17.065 13.8486 16.2128L16.2968 18.6632C16.9006 19.2668 17.8794 19.2668 18.4834 18.6636C19.0872 18.0594 19.0872 17.081 18.4838 16.4766ZM13.7846 13.9634C12.6236 15.1224 11.1108 15.6986 9.5896 15.7002C8.0682 15.6986 6.5556 15.1224 5.3946 13.9634C4.23361 12.8016 3.65681 11.2892 3.6556 9.76797C3.65679 8.24678 4.2338 6.73336 5.3946 5.57217C6.55601 4.41118 8.068 3.83496 9.5896 3.83358C11.1104 3.83518 12.6228 4.41137 13.7846 5.57217C14.944 6.73358 15.5212 8.24637 15.5218 9.76797C15.521 11.2892 14.944 12.8024 13.7846 13.9634Z" fill="black"/>
</g>
<defs>
<clipPath id="clip0_2_51">
<rect width="20" height="20" fill="white"/>
</clipPath>
</defs>
</svg>
