<svg width="20" height="20" viewBox="0 0 20 20" fill="none" xmlns="http://www.w3.org/2000/svg">
<g clip-path="url(#clip0_8_567)">
<path d="M18.4835 16.4766L16.0347 14.0266C16.8871 12.739 17.3139 11.2512 17.3135 9.76797C17.3145 7.79397 16.5581 5.81118 15.0511 4.30496C13.5449 2.79817 11.5627 2.04036 9.5893 2.04157C7.6151 2.04037 5.63311 2.79817 4.12709 4.30477C2.61988 5.81118 1.8627 7.79358 1.86328 9.76797C1.86268 11.742 2.61969 13.7248 4.12709 15.2302C5.63328 16.7364 7.61568 17.4924 9.5893 17.492C11.0725 17.4924 12.5607 17.065 13.8483 16.2128L16.2965 18.6632C16.9003 19.2668 17.8791 19.2668 18.4831 18.6636C19.0869 18.0594 19.0869 17.081 18.4835 16.4766ZM13.7843 13.9634C12.6233 15.1224 11.1105 15.6986 9.5893 15.7002C8.06789 15.6986 6.55529 15.1224 5.3943 13.9634C4.2333 12.8016 3.6565 11.2892 3.65529 9.76797C3.65648 8.24678 4.2335 6.73336 5.3943 5.57217C6.5557 4.41118 8.0677 3.83496 9.5893 3.83358C11.1101 3.83518 12.6225 4.41137 13.7843 5.57217C14.9437 6.73358 15.5209 8.24637 15.5215 9.76797C15.5207 11.2892 14.9437 12.8024 13.7843 13.9634Z" fill="black"/>
</g>
<defs>
<clipPath id="clip0_8_567">
<rect width="20" height="20" fill="white"/>
</clipPath>
</defs>
</svg>
