<svg width="20" height="20" viewBox="0 0 20 20" fill="none" xmlns="http://www.w3.org/2000/svg">
<g clip-path="url(#clip0_3_721)">
<path d="M18.4837 16.4766L16.0349 14.0266C16.8873 12.739 17.3141 11.2512 17.3137 9.76797C17.3147 7.79397 16.5584 5.81118 15.0513 4.30496C13.5451 2.79817 11.5629 2.04036 9.58954 2.04157C7.61534 2.04037 5.63335 2.79817 4.12733 4.30477C2.62013 5.81118 1.86294 7.79358 1.86353 9.76797C1.86292 11.742 2.61993 13.7248 4.12733 15.2302C5.63353 16.7364 7.61593 17.4924 9.58954 17.492C11.0727 17.4924 12.5609 17.065 13.8485 16.2128L16.2968 18.6632C16.9006 19.2668 17.8793 19.2668 18.4834 18.6636C19.0872 18.0594 19.0872 17.081 18.4837 16.4766ZM13.7845 13.9634C12.6235 15.1224 11.1107 15.6986 9.58954 15.7002C8.06814 15.6986 6.55554 15.1224 5.39454 13.9634C4.23355 12.8016 3.65675 11.2892 3.65554 9.76797C3.65673 8.24678 4.23374 6.73336 5.39454 5.57217C6.55595 4.41118 8.06794 3.83496 9.58954 3.83358C11.1103 3.83518 12.6227 4.41137 13.7845 5.57217C14.9439 6.73358 15.5211 8.24637 15.5217 9.76797C15.5209 11.2892 14.944 12.8024 13.7845 13.9634Z" fill="black"/>
</g>
<defs>
<clipPath id="clip0_3_721">
<rect width="20" height="20" fill="white"/>
</clipPath>
</defs>
</svg>
