<svg width="20" height="20" viewBox="0 0 20 20" fill="none" xmlns="http://www.w3.org/2000/svg">
<g clip-path="url(#clip0_5_927)">
<path d="M18.484 16.4766L16.0352 14.0266C16.8876 12.739 17.3144 11.2512 17.314 9.76797C17.315 7.79397 16.5586 5.81118 15.0516 4.30496C13.5454 2.79817 11.5632 2.04036 9.58979 2.04157C7.61559 2.04037 5.63359 2.79817 4.12758 4.30477C2.62037 5.81118 1.86318 7.79358 1.86377 9.76797C1.86316 11.742 2.62018 13.7248 4.12758 15.2302C5.63377 16.7364 7.61617 17.4924 9.58979 17.492C11.073 17.4924 12.5612 17.065 13.8488 16.2128L16.297 18.6632C16.9008 19.2668 17.8796 19.2668 18.4836 18.6636C19.0874 18.0594 19.0874 17.081 18.484 16.4766ZM13.7848 13.9634C12.6238 15.1224 11.111 15.6986 9.58979 15.7002C8.06838 15.6986 6.55578 15.1224 5.39479 13.9634C4.23379 12.8016 3.65699 11.2892 3.65578 9.76797C3.65697 8.24678 4.23399 6.73336 5.39479 5.57217C6.55619 4.41118 8.06818 3.83496 9.58979 3.83358C11.1106 3.83518 12.623 4.41137 13.7848 5.57217C14.9442 6.73358 15.5214 8.24637 15.522 9.76797C15.5212 11.2892 14.9442 12.8024 13.7848 13.9634Z" fill="black"/>
</g>
<defs>
<clipPath id="clip0_5_927">
<rect width="20" height="20" fill="white"/>
</clipPath>
</defs>
</svg>
