<svg width="10" height="15" viewBox="0 0 10 15" fill="none" xmlns="http://www.w3.org/2000/svg">
<g clip-path="url(#clip0_2_26)">
<path d="M8.7868 6.86133L5.50555 10.0059C5.33238 10.1699 5.14553 10.252 4.94501 10.252C4.73537 10.252 4.54852 10.1699 4.38446 10.0059L1.10321 6.86133C0.957377 6.71549 0.88446 6.52409 0.88446 6.28711C0.88446 6.05924 0.957377 5.86784 1.10321 5.71289C1.45868 5.36654 1.82326 5.36654 2.19696 5.71289L4.94501 8.35156L7.69305 5.71289C8.06675 5.36654 8.43134 5.36654 8.7868 5.71289C8.93264 5.86784 9.00555 6.05924 9.00555 6.28711C9.00555 6.52409 8.93264 6.71549 8.7868 6.86133Z" fill="black"/>
</g>
<defs>
<clipPath id="clip0_2_26">
<rect width="8.13" height="14" fill="white" transform="matrix(1 0 0 -1 0.880005 14.75)"/>
</clipPath>
</defs>
</svg>
