<svg width="9" height="15" viewBox="0 0 9 15" fill="none" xmlns="http://www.w3.org/2000/svg">
<g clip-path="url(#clip0_8_552)">
<path d="M8.62695 6.86133L5.3457 10.0059C5.17253 10.1699 4.98568 10.252 4.78516 10.252C4.57552 10.252 4.38867 10.1699 4.22461 10.0059L0.943359 6.86133C0.797526 6.71549 0.724609 6.52409 0.724609 6.28711C0.724609 6.05924 0.797526 5.86784 0.943359 5.71289C1.29883 5.36654 1.66341 5.36654 2.03711 5.71289L4.78516 8.35156L7.5332 5.71289C7.9069 5.36654 8.27148 5.36654 8.62695 5.71289C8.77279 5.86784 8.8457 6.05924 8.8457 6.28711C8.8457 6.52409 8.77279 6.71549 8.62695 6.86133Z" fill="black"/>
</g>
<defs>
<clipPath id="clip0_8_552">
<rect width="8.13" height="14" fill="white" transform="matrix(1 0 0 -1 0.719727 14.75)"/>
</clipPath>
</defs>
</svg>
