<svg width="9" height="15" viewBox="0 0 9 15" fill="none" xmlns="http://www.w3.org/2000/svg">
<g clip-path="url(#clip0_8_556)">
<path d="M8.37695 6.86133L5.0957 10.0059C4.92253 10.1699 4.73568 10.252 4.53516 10.252C4.32552 10.252 4.13867 10.1699 3.97461 10.0059L0.693359 6.86133C0.547526 6.71549 0.474609 6.52409 0.474609 6.28711C0.474609 6.05924 0.547526 5.86784 0.693359 5.71289C1.04883 5.36654 1.41341 5.36654 1.78711 5.71289L4.53516 8.35156L7.2832 5.71289C7.6569 5.36654 8.02148 5.36654 8.37695 5.71289C8.52279 5.86784 8.5957 6.05924 8.5957 6.28711C8.5957 6.52409 8.52279 6.71549 8.37695 6.86133Z" fill="black"/>
</g>
<defs>
<clipPath id="clip0_8_556">
<rect width="8.13" height="14" fill="white" transform="matrix(1 0 0 -1 0.469727 14.75)"/>
</clipPath>
</defs>
</svg>
