<svg width="9" height="15" viewBox="0 0 9 15" fill="none" xmlns="http://www.w3.org/2000/svg">
<g clip-path="url(#clip0_5_920)">
<path d="M8.54639 6.86133L5.26514 10.0059C5.09196 10.1699 4.90511 10.252 4.70459 10.252C4.49495 10.252 4.30811 10.1699 4.14404 10.0059L0.862793 6.86133C0.71696 6.71549 0.644043 6.52409 0.644043 6.28711C0.644043 6.05924 0.71696 5.86784 0.862793 5.71289C1.21826 5.36654 1.58285 5.36654 1.95654 5.71289L4.70459 8.35156L7.45264 5.71289C7.82633 5.36654 8.19092 5.36654 8.54639 5.71289C8.69222 5.86784 8.76514 6.05924 8.76514 6.28711C8.76514 6.52409 8.69222 6.71549 8.54639 6.86133Z" fill="black"/>
</g>
<defs>
<clipPath id="clip0_5_920">
<rect width="8.13" height="14" fill="white" transform="matrix(1 0 0 -1 0.639648 14.75)"/>
</clipPath>
</defs>
</svg>
