<svg width="9" height="15" viewBox="0 0 9 15" fill="none" xmlns="http://www.w3.org/2000/svg">
<g clip-path="url(#clip0_2_42)">
<path d="M8.40683 6.86133L5.12558 10.0059C4.9524 10.1699 4.76555 10.252 4.56503 10.252C4.3554 10.252 4.16855 10.1699 4.00449 10.0059L0.723236 6.86133C0.577403 6.71549 0.504486 6.52409 0.504486 6.28711C0.504486 6.05924 0.577403 5.86784 0.723236 5.71289C1.0787 5.36654 1.44329 5.36654 1.81699 5.71289L4.56503 8.35156L7.31308 5.71289C7.68678 5.36654 8.05136 5.36654 8.40683 5.71289C8.55266 5.86784 8.62558 6.05924 8.62558 6.28711C8.62558 6.52409 8.55266 6.71549 8.40683 6.86133Z" fill="black"/>
</g>
<defs>
<clipPath id="clip0_2_42">
<rect width="8.13" height="14" fill="white" transform="matrix(1 0 0 -1 0.500031 14.75)"/>
</clipPath>
</defs>
</svg>
