<svg width="9" height="15" viewBox="0 0 9 15" fill="none" xmlns="http://www.w3.org/2000/svg">
<g clip-path="url(#clip0_3_710)">
<path d="M8.37671 6.86133L5.09546 10.0059C4.92228 10.1699 4.73543 10.252 4.53491 10.252C4.32528 10.252 4.13843 10.1699 3.97437 10.0059L0.693115 6.86133C0.547282 6.71549 0.474365 6.52409 0.474365 6.28711C0.474365 6.05924 0.547282 5.86784 0.693115 5.71289C1.04858 5.36654 1.41317 5.36654 1.78687 5.71289L4.53491 8.35156L7.28296 5.71289C7.65666 5.36654 8.02124 5.36654 8.37671 5.71289C8.52254 5.86784 8.59546 6.05924 8.59546 6.28711C8.59546 6.52409 8.52254 6.71549 8.37671 6.86133Z" fill="black"/>
</g>
<defs>
<clipPath id="clip0_3_710">
<rect width="8.13" height="14" fill="white" transform="matrix(1 0 0 -1 0.469971 14.75)"/>
</clipPath>
</defs>
</svg>
