<svg width="9" height="15" viewBox="0 0 9 15" fill="none" xmlns="http://www.w3.org/2000/svg">
<g clip-path="url(#clip0_2_34)">
<path d="M8.37679 6.86133L5.09554 10.0059C4.92237 10.1699 4.73552 10.252 4.535 10.252C4.32536 10.252 4.13851 10.1699 3.97445 10.0059L0.693199 6.86133C0.547366 6.71549 0.474449 6.52409 0.474449 6.28711C0.474449 6.05924 0.547366 5.86784 0.693199 5.71289C1.04867 5.36654 1.41325 5.36654 1.78695 5.71289L4.535 8.35156L7.28304 5.71289C7.65674 5.36654 8.02132 5.36654 8.37679 5.71289C8.52263 5.86784 8.59554 6.05924 8.59554 6.28711C8.59554 6.52409 8.52263 6.71549 8.37679 6.86133Z" fill="black"/>
</g>
<defs>
<clipPath id="clip0_2_34">
<rect width="8.13" height="14" fill="white" transform="matrix(1 0 0 -1 0.469994 14.75)"/>
</clipPath>
</defs>
</svg>
