<svg width="9" height="15" viewBox="0 0 9 15" fill="none" xmlns="http://www.w3.org/2000/svg">
<g clip-path="url(#clip0_8_564)">
<path d="M8.40723 6.86133L5.12598 10.0059C4.9528 10.1699 4.76595 10.252 4.56543 10.252C4.35579 10.252 4.16895 10.1699 4.00488 10.0059L0.723633 6.86133C0.577799 6.71549 0.504883 6.52409 0.504883 6.28711C0.504883 6.05924 0.577799 5.86784 0.723633 5.71289C1.0791 5.36654 1.44368 5.36654 1.81738 5.71289L4.56543 8.35156L7.31348 5.71289C7.68717 5.36654 8.05176 5.36654 8.40723 5.71289C8.55306 5.86784 8.62598 6.05924 8.62598 6.28711C8.62598 6.52409 8.55306 6.71549 8.40723 6.86133Z" fill="black"/>
</g>
<defs>
<clipPath id="clip0_8_564">
<rect width="8.13" height="14" fill="white" transform="matrix(1 0 0 -1 0.5 14.75)"/>
</clipPath>
</defs>
</svg>
