<svg width="9" height="15" viewBox="0 0 9 15" fill="none" xmlns="http://www.w3.org/2000/svg">
<g clip-path="url(#clip0_3_706)">
<path d="M8.62671 6.86133L5.34546 10.0059C5.17228 10.1699 4.98543 10.252 4.78491 10.252C4.57528 10.252 4.38843 10.1699 4.22437 10.0059L0.943115 6.86133C0.797282 6.71549 0.724365 6.52409 0.724365 6.28711C0.724365 6.05924 0.797282 5.86784 0.943115 5.71289C1.29858 5.36654 1.66317 5.36654 2.03687 5.71289L4.78491 8.35156L7.53296 5.71289C7.90666 5.36654 8.27124 5.36654 8.62671 5.71289C8.77254 5.86784 8.84546 6.05924 8.84546 6.28711C8.84546 6.52409 8.77254 6.71549 8.62671 6.86133Z" fill="black"/>
</g>
<defs>
<clipPath id="clip0_3_706">
<rect width="8.13" height="14" fill="white" transform="matrix(1 0 0 -1 0.719971 14.75)"/>
</clipPath>
</defs>
</svg>
