<svg width="9" height="15" viewBox="0 0 9 15" fill="none" xmlns="http://www.w3.org/2000/svg">
<g clip-path="url(#clip0_5_916)">
<path d="M8.37646 6.86133L5.09521 10.0059C4.92204 10.1699 4.73519 10.252 4.53467 10.252C4.32503 10.252 4.13818 10.1699 3.97412 10.0059L0.692871 6.86133C0.547038 6.71549 0.474121 6.52409 0.474121 6.28711C0.474121 6.05924 0.547038 5.86784 0.692871 5.71289C1.04834 5.36654 1.41292 5.36654 1.78662 5.71289L4.53467 8.35156L7.28271 5.71289C7.65641 5.36654 8.021 5.36654 8.37646 5.71289C8.5223 5.86784 8.59521 6.05924 8.59521 6.28711C8.59521 6.52409 8.5223 6.71549 8.37646 6.86133Z" fill="black"/>
</g>
<defs>
<clipPath id="clip0_5_916">
<rect width="8.13" height="14" fill="white" transform="matrix(1 0 0 -1 0.469727 14.75)"/>
</clipPath>
</defs>
</svg>
