<svg width="10" height="15" viewBox="0 0 10 15" fill="none" xmlns="http://www.w3.org/2000/svg">
<g clip-path="url(#clip0_3_702)">
<path d="M8.78687 6.86133L5.50562 10.0059C5.33244 10.1699 5.14559 10.252 4.94507 10.252C4.73543 10.252 4.54858 10.1699 4.38452 10.0059L1.10327 6.86133C0.957438 6.71549 0.884521 6.52409 0.884521 6.28711C0.884521 6.05924 0.957438 5.86784 1.10327 5.71289C1.45874 5.36654 1.82332 5.36654 2.19702 5.71289L4.94507 8.35156L7.69312 5.71289C8.06681 5.36654 8.4314 5.36654 8.78687 5.71289C8.9327 5.86784 9.00562 6.05924 9.00562 6.28711C9.00562 6.52409 8.9327 6.71549 8.78687 6.86133Z" fill="black"/>
</g>
<defs>
<clipPath id="clip0_3_702">
<rect width="8.13" height="14" fill="white" transform="matrix(1 0 0 -1 0.880127 14.75)"/>
</clipPath>
</defs>
</svg>
