<svg width="9" height="15" viewBox="0 0 9 15" fill="none" xmlns="http://www.w3.org/2000/svg">
<g clip-path="url(#clip0_3_714)">
<path d="M8.54688 6.86133L5.26562 10.0059C5.09245 10.1699 4.9056 10.252 4.70508 10.252C4.49544 10.252 4.30859 10.1699 4.14453 10.0059L0.863281 6.86133C0.717448 6.71549 0.644531 6.52409 0.644531 6.28711C0.644531 6.05924 0.717448 5.86784 0.863281 5.71289C1.21875 5.36654 1.58333 5.36654 1.95703 5.71289L4.70508 8.35156L7.45312 5.71289C7.82682 5.36654 8.19141 5.36654 8.54688 5.71289C8.69271 5.86784 8.76562 6.05924 8.76562 6.28711C8.76562 6.52409 8.69271 6.71549 8.54688 6.86133Z" fill="black"/>
</g>
<defs>
<clipPath id="clip0_3_714">
<rect width="8.13" height="14" fill="white" transform="matrix(1 0 0 -1 0.640137 14.75)"/>
</clipPath>
</defs>
</svg>
