<svg width="9" height="15" viewBox="0 0 9 15" fill="none" xmlns="http://www.w3.org/2000/svg">
<g clip-path="url(#clip0_2_30)">
<path d="M8.6268 6.86133L5.34555 10.0059C5.17237 10.1699 4.98552 10.252 4.785 10.252C4.57537 10.252 4.38852 10.1699 4.22446 10.0059L0.943207 6.86133C0.797373 6.71549 0.724457 6.52409 0.724457 6.28711C0.724457 6.05924 0.797373 5.86784 0.943207 5.71289C1.29868 5.36654 1.66326 5.36654 2.03696 5.71289L4.785 8.35156L7.53305 5.71289C7.90675 5.36654 8.27133 5.36654 8.6268 5.71289C8.77263 5.86784 8.84555 6.05924 8.84555 6.28711C8.84555 6.52409 8.77263 6.71549 8.6268 6.86133Z" fill="black"/>
</g>
<defs>
<clipPath id="clip0_2_30">
<rect width="8.13" height="14" fill="white" transform="matrix(1 0 0 -1 0.720001 14.75)"/>
</clipPath>
</defs>
</svg>
