<svg width="10" height="15" viewBox="0 0 10 15" fill="none" xmlns="http://www.w3.org/2000/svg">
<g clip-path="url(#clip0_5_908)">
<path d="M8.78711 6.86133L5.50586 10.0059C5.33268 10.1699 5.14583 10.252 4.94531 10.252C4.73568 10.252 4.54883 10.1699 4.38477 10.0059L1.10352 6.86133C0.957682 6.71549 0.884766 6.52409 0.884766 6.28711C0.884766 6.05924 0.957682 5.86784 1.10352 5.71289C1.45898 5.36654 1.82357 5.36654 2.19727 5.71289L4.94531 8.35156L7.69336 5.71289C8.06706 5.36654 8.43164 5.36654 8.78711 5.71289C8.93294 5.86784 9.00586 6.05924 9.00586 6.28711C9.00586 6.52409 8.93294 6.71549 8.78711 6.86133Z" fill="black"/>
</g>
<defs>
<clipPath id="clip0_5_908">
<rect width="8.13" height="14" fill="white" transform="matrix(1 0 0 -1 0.880371 14.75)"/>
</clipPath>
</defs>
</svg>
