<svg width="9" height="15" viewBox="0 0 9 15" fill="none" xmlns="http://www.w3.org/2000/svg">
<g clip-path="url(#clip0_5_924)">
<path d="M8.40674 6.86133L5.12549 10.0059C4.95231 10.1699 4.76546 10.252 4.56494 10.252C4.35531 10.252 4.16846 10.1699 4.00439 10.0059L0.723145 6.86133C0.577311 6.71549 0.504395 6.52409 0.504395 6.28711C0.504395 6.05924 0.577311 5.86784 0.723145 5.71289C1.07861 5.36654 1.4432 5.36654 1.81689 5.71289L4.56494 8.35156L7.31299 5.71289C7.68669 5.36654 8.05127 5.36654 8.40674 5.71289C8.55257 5.86784 8.62549 6.05924 8.62549 6.28711C8.62549 6.52409 8.55257 6.71549 8.40674 6.86133Z" fill="black"/>
</g>
<defs>
<clipPath id="clip0_5_924">
<rect width="8.13" height="14" fill="white" transform="matrix(1 0 0 -1 0.5 14.75)"/>
</clipPath>
</defs>
</svg>
