<svg width="9" height="15" viewBox="0 0 9 15" fill="none" xmlns="http://www.w3.org/2000/svg">
<g clip-path="url(#clip0_2_38)">
<path d="M8.5468 6.86133L5.26555 10.0059C5.09237 10.1699 4.90552 10.252 4.705 10.252C4.49536 10.252 4.30852 10.1699 4.14445 10.0059L0.863203 6.86133C0.71737 6.71549 0.644453 6.52409 0.644453 6.28711C0.644453 6.05924 0.71737 5.86784 0.863203 5.71289C1.21867 5.36654 1.58326 5.36654 1.95695 5.71289L4.705 8.35156L7.45305 5.71289C7.82674 5.36654 8.19133 5.36654 8.5468 5.71289C8.69263 5.86784 8.76555 6.05924 8.76555 6.28711C8.76555 6.52409 8.69263 6.71549 8.5468 6.86133Z" fill="black"/>
</g>
<defs>
<clipPath id="clip0_2_38">
<rect width="8.13" height="14" fill="white" transform="matrix(1 0 0 -1 0.639999 14.75)"/>
</clipPath>
</defs>
</svg>
