<svg width="52" height="22" viewBox="0 0 52 22" fill="none" xmlns="http://www.w3.org/2000/svg">
<g opacity="0.6">
<path d="M13.1749 5.68495L13.5825 5.27743L13.1668 4.87821C12.1399 3.89184 10.7556 3.13123 8.82962 3.13123C5.35503 3.13123 2.42627 5.95926 2.42627 9.45412C2.42627 12.949 5.35503 15.777 8.82962 15.777C10.6901 15.777 12.1256 15.1604 13.2527 13.9937C14.4347 12.8092 14.7752 11.1799 14.7752 9.91803C14.7752 9.524 14.7421 9.1458 14.6777 8.82384L14.5869 8.3698H8.26479V11.0766H11.9024C11.7725 11.5259 11.5769 11.8512 11.3382 12.0904C10.8647 12.5583 10.1466 13.0765 8.82962 13.0765C6.83205 13.0765 5.26294 11.4715 5.26294 9.45412C5.26294 7.43685 6.83205 5.83183 8.82962 5.83183C9.91123 5.83183 10.6937 6.2541 11.2825 6.80506L11.6815 7.1784L12.0678 6.79204L13.1749 5.68495Z" fill="white" stroke="white" stroke-width="1.12966"/>
<path d="M18.7442 15.7709C21.0705 15.7709 22.9643 13.949 22.9643 11.5014C22.9643 9.04016 21.0693 7.23181 18.7442 7.23181C16.4191 7.23181 14.5242 9.04016 14.5242 11.5014C14.5242 13.949 16.4178 15.7709 18.7442 15.7709ZM18.7442 9.82105C19.5078 9.82105 20.2328 10.4514 20.2328 11.5014C20.2328 12.541 19.5058 13.1816 18.7442 13.1816C17.9836 13.1816 17.2557 12.5359 17.2557 11.5014C17.2557 10.4565 17.9816 9.82105 18.7442 9.82105Z" fill="white" stroke="white" stroke-width="1.12966"/>
<path d="M26.9421 13.1816H26.9389C26.1784 13.1816 25.4503 12.5359 25.4503 11.5014C25.4503 10.4565 26.1763 9.82105 26.9389 9.82105C27.7025 9.82105 28.4274 10.4514 28.4274 11.5014C28.4274 12.544 27.6984 13.1859 26.9421 13.1816ZM26.9327 15.7709C29.2591 15.7709 31.1528 13.949 31.1528 11.5014C31.1528 9.04016 29.2578 7.23181 26.9327 7.23181C24.6076 7.23181 22.7126 9.04016 22.7126 11.5014C22.7126 13.9496 24.6132 15.7709 26.9327 15.7709Z" fill="white" stroke="white" stroke-width="1.12966"/>
<path d="M39.1438 8.01926V7.45446H36.468V7.54674C36.0537 7.34959 35.5626 7.22562 35.0227 7.22562C32.8509 7.22562 30.9077 9.12188 30.9077 11.5137C30.9077 13.1155 31.7843 14.4869 33.0189 15.2143L32.9693 15.2348L31.553 15.8224L31.0312 16.0388L31.2478 16.5606C31.7168 17.6905 32.9631 19.0983 35.0536 19.0983C36.1159 19.0983 37.1525 18.7862 37.926 18.037C38.7041 17.2832 39.1438 16.1568 39.1438 14.6741V8.01926ZM33.7069 15.5385C34.125 15.6895 34.5687 15.7709 35.0227 15.7709C35.5354 15.7709 36.0061 15.6604 36.4091 15.4778C36.3432 15.7709 36.2271 15.9832 36.0889 16.1317C35.8771 16.3593 35.5465 16.5091 35.0536 16.5091C34.3669 16.5091 33.9088 16.0214 33.7069 15.5385ZM35.1649 9.82106C35.8971 9.82106 36.5793 10.4599 36.5793 11.5199C36.5793 12.5589 35.9048 13.1878 35.1649 13.1878C34.3796 13.1878 33.664 12.5298 33.664 11.5199C33.664 10.4841 34.3866 9.82106 35.1649 9.82106ZM41.9948 4.09193V3.5271H39.2385V15.5544H41.9948V4.09193Z" fill="white" stroke="white" stroke-width="1.12966"/>
<path d="M48.1508 12.2559L47.6851 11.9455L47.3704 12.4083C47.0268 12.9135 46.6096 13.1939 46.0129 13.1939C45.6887 13.1939 45.441 13.12 45.245 12.9964C45.1923 12.9632 45.1408 12.9248 45.0909 12.8808L49.3835 11.1015L49.8975 10.8884L49.6922 10.3713L49.5273 9.956C49.1863 9.04663 48.104 7.23792 45.8275 7.23792C43.5807 7.23792 41.8176 9.01794 41.8176 11.5075C41.8176 13.8779 43.5665 15.777 46.0068 15.777C47.9681 15.777 49.1028 14.5728 49.5677 13.8825L49.8847 13.4118L49.4125 13.097L48.1508 12.2559ZM46.2178 9.83822L44.7603 10.4418C45.0461 10.0093 45.5215 9.79627 45.8831 9.79627C46.0076 9.79627 46.1193 9.81186 46.2178 9.83822Z" fill="white" stroke="white" stroke-width="1.12966"/>
</g>
<path d="M8.82974 15.2122C5.65688 15.2122 2.99121 12.6269 2.99121 9.45411C2.99121 6.28131 5.65688 3.69604 8.82974 3.69604C10.5862 3.69604 11.8355 4.38257 12.7756 5.28555L11.6686 6.39264C10.9944 5.76178 10.0791 5.267 8.82974 5.267C6.51039 5.267 4.69823 7.13481 4.69823 9.45411C4.69823 11.7734 6.51039 13.6413 8.82974 13.6413C10.3326 13.6413 11.1861 13.0352 11.7366 12.4909C12.1881 12.0394 12.4787 11.3961 12.5901 10.5118H8.82974V8.93462H14.1239C14.1796 9.21289 14.2105 9.55307 14.2105 9.91802C14.2105 11.0993 13.8889 12.5589 12.8499 13.598C11.8355 14.6494 10.5491 15.2122 8.82974 15.2122Z" fill="#4285F4"/>
<path d="M22.3996 11.5014C22.3996 13.6351 20.7606 15.206 18.7443 15.206C16.7281 15.206 15.0891 13.6351 15.0891 11.5014C15.0891 9.35518 16.7281 7.79663 18.7443 7.79663C20.7606 7.79663 22.3996 9.35518 22.3996 11.5014ZM20.7977 11.5014C20.7977 10.1654 19.8452 9.25622 18.7443 9.25622C17.6434 9.25622 16.691 10.1716 16.691 11.5014C16.691 12.8187 17.6434 13.7464 18.7443 13.7464C19.8452 13.7464 20.7977 12.8249 20.7977 11.5014Z" fill="#E94235"/>
<path d="M30.588 11.5014C30.588 13.6351 28.9491 15.206 26.9329 15.206C24.9227 15.206 23.2776 13.6351 23.2776 11.5014C23.2776 9.35518 24.9166 7.79663 26.9329 7.79663C28.9491 7.79663 30.588 9.35518 30.588 11.5014ZM28.9924 11.5014C28.9924 10.1654 28.0399 9.25622 26.939 9.25622C25.8381 9.25622 24.8856 10.1716 24.8856 11.5014C24.8856 12.8187 25.8381 13.7464 26.939 13.7464C28.0399 13.7526 28.9924 12.8249 28.9924 11.5014Z" fill="#FABB05"/>
<path d="M38.5791 8.0192V14.6741C38.5791 17.414 36.9648 18.5334 35.0537 18.5334C33.2539 18.5334 32.1778 17.3274 31.7695 16.344L33.1859 15.7564C33.4395 16.3625 34.058 17.0738 35.0537 17.0738C36.2783 17.0738 37.0329 16.3131 37.0329 14.8968V14.3648H36.9772C36.6123 14.8163 35.9072 15.206 35.0228 15.206C33.1674 15.206 31.4727 13.5918 31.4727 11.5137C31.4727 9.42321 33.1735 7.79041 35.0228 7.79041C35.9072 7.79041 36.6123 8.18624 36.9772 8.61912H37.0329V8.0192H38.5791ZM37.1442 11.5198C37.1442 10.2149 36.2721 9.25617 35.165 9.25617C34.0394 9.25617 33.0993 10.2086 33.0993 11.5198C33.0993 12.8125 34.0394 13.7526 35.165 13.7526C36.2721 13.7526 37.1442 12.8125 37.1442 11.5198Z" fill="#4285F4"/>
<path d="M41.4301 4.09192V14.9896H39.8035V4.09192H41.4301Z" fill="#34A853"/>
<path d="M47.8376 12.7258L49.0994 13.567C48.6911 14.1732 47.7078 15.2122 46.0069 15.2122C43.8979 15.2122 42.3826 13.5856 42.3826 11.5075C42.3826 9.30563 43.9164 7.80273 45.8276 7.80273C47.751 7.80273 48.6911 9.3304 49.0004 10.1592L49.1674 10.5797L44.2133 12.6331C44.5906 13.3753 45.1843 13.7587 46.0131 13.7587C46.8418 13.7587 47.4171 13.3444 47.8376 12.7258ZM43.9474 11.3899L47.2625 10.0169C47.0769 9.55302 46.5326 9.23145 45.8832 9.23145C45.0544 9.23145 43.9041 9.96128 43.9474 11.3899Z" fill="#E94235"/>
</svg>
