<svg width="52" height="22" viewBox="0 0 52 22" fill="none" xmlns="http://www.w3.org/2000/svg">
<g opacity="0.6">
<path d="M13.1751 5.68495L13.5827 5.27743L13.1671 4.87821C12.1401 3.89184 10.7559 3.13123 8.82987 3.13123C5.35527 3.13123 2.42651 5.95926 2.42651 9.45412C2.42651 12.949 5.35527 15.777 8.82987 15.777C10.6903 15.777 12.1258 15.1604 13.253 13.9937C14.435 12.8092 14.7755 11.1799 14.7755 9.91803C14.7755 9.524 14.7423 9.1458 14.6779 8.82384L14.5871 8.3698H8.26504V11.0766H11.9026C11.7728 11.5259 11.5772 11.8512 11.3385 12.0904C10.8649 12.5583 10.1468 13.0765 8.82987 13.0765C6.8323 13.0765 5.26318 11.4715 5.26318 9.45412C5.26318 7.43685 6.8323 5.83183 8.82987 5.83183C9.91147 5.83183 10.6939 6.2541 11.2827 6.80506L11.6817 7.1784L12.0681 6.79204L13.1751 5.68495Z" fill="white" stroke="white" stroke-width="1.12966"/>
<path d="M18.7443 15.7709C21.0706 15.7709 22.9644 13.949 22.9644 11.5014C22.9644 9.04016 21.0694 7.23181 18.7443 7.23181C16.4193 7.23181 14.5243 9.04016 14.5243 11.5014C14.5243 13.949 16.418 15.7709 18.7443 15.7709ZM18.7443 9.82105C19.508 9.82105 20.2329 10.4514 20.2329 11.5014C20.2329 12.541 19.5059 13.1816 18.7443 13.1816C17.9837 13.1816 17.2558 12.5359 17.2558 11.5014C17.2558 10.4565 17.9817 9.82105 18.7443 9.82105Z" fill="white" stroke="white" stroke-width="1.12966"/>
<path d="M26.9422 13.1816H26.9391C26.1785 13.1816 25.4505 12.5359 25.4505 11.5014C25.4505 10.4565 26.1765 9.82105 26.9391 9.82105C27.7026 9.82105 28.4276 10.4514 28.4276 11.5014C28.4276 12.544 27.6986 13.1859 26.9422 13.1816ZM26.9329 15.7709C29.2592 15.7709 31.1529 13.949 31.1529 11.5014C31.1529 9.04016 29.2579 7.23181 26.9329 7.23181C24.6078 7.23181 22.7128 9.04016 22.7128 11.5014C22.7128 13.9496 24.6133 15.7709 26.9329 15.7709Z" fill="white" stroke="white" stroke-width="1.12966"/>
<path d="M39.1439 8.01926V7.45446H36.4681V7.54674C36.0539 7.34959 35.5627 7.22562 35.0228 7.22562C32.8511 7.22562 30.9078 9.12188 30.9078 11.5137C30.9078 13.1155 31.7844 14.4869 33.019 15.2143L32.9695 15.2348L31.5532 15.8224L31.0313 16.0388L31.2479 16.5606C31.717 17.6905 32.9632 19.0983 35.0537 19.0983C36.116 19.0983 37.1526 18.7862 37.9261 18.037C38.7042 17.2832 39.1439 16.1568 39.1439 14.6741V8.01926ZM33.707 15.5385C34.1251 15.6895 34.5688 15.7709 35.0228 15.7709C35.5355 15.7709 36.0062 15.6604 36.4093 15.4778C36.3433 15.7709 36.2272 15.9832 36.089 16.1317C35.8773 16.3593 35.5467 16.5091 35.0537 16.5091C34.367 16.5091 33.909 16.0214 33.707 15.5385ZM35.1651 9.82106C35.8972 9.82106 36.5794 10.4599 36.5794 11.5199C36.5794 12.5589 35.9049 13.1878 35.1651 13.1878C34.3797 13.1878 33.6641 12.5298 33.6641 11.5199C33.6641 10.4841 34.3867 9.82106 35.1651 9.82106ZM41.995 4.09193V3.5271H39.2387V15.5544H41.995V4.09193Z" fill="white" stroke="white" stroke-width="1.12966"/>
<path d="M48.1509 12.2559L47.6853 11.9455L47.3705 12.4083C47.027 12.9135 46.6097 13.1939 46.0131 13.1939C45.6888 13.1939 45.4411 13.12 45.2451 12.9964C45.1924 12.9632 45.141 12.9248 45.091 12.8808L49.3837 11.1015L49.8976 10.8884L49.6924 10.3713L49.5274 9.956C49.1864 9.04663 48.1041 7.23792 45.8276 7.23792C43.5808 7.23792 41.8177 9.01794 41.8177 11.5075C41.8177 13.8779 43.5666 15.777 46.0069 15.777C47.9682 15.777 49.103 14.5728 49.5678 13.8825L49.8848 13.4118L49.4127 13.097L48.1509 12.2559ZM46.2179 9.83822L44.7604 10.4418C45.0462 10.0093 45.5216 9.79627 45.8832 9.79627C46.0077 9.79627 46.1194 9.81186 46.2179 9.83822Z" fill="white" stroke="white" stroke-width="1.12966"/>
</g>
<path d="M8.82986 15.2122C5.657 15.2122 2.99133 12.6269 2.99133 9.45411C2.99133 6.28131 5.657 3.69604 8.82986 3.69604C10.5863 3.69604 11.8356 4.38257 12.7757 5.28555L11.6687 6.39264C10.9945 5.76178 10.0792 5.267 8.82986 5.267C6.51051 5.267 4.69835 7.13481 4.69835 9.45411C4.69835 11.7734 6.51051 13.6413 8.82986 13.6413C10.3328 13.6413 11.1862 13.0352 11.7367 12.4909C12.1882 12.0394 12.4789 11.3961 12.5902 10.5118H8.82986V8.93462H14.124C14.1797 9.21289 14.2106 9.55307 14.2106 9.91802C14.2106 11.0993 13.8891 12.5589 12.85 13.598C11.8356 14.6494 10.5492 15.2122 8.82986 15.2122Z" fill="#4285F4"/>
<path d="M22.3996 11.5014C22.3996 13.6351 20.7606 15.206 18.7443 15.206C16.7281 15.206 15.0891 13.6351 15.0891 11.5014C15.0891 9.35518 16.7281 7.79663 18.7443 7.79663C20.7606 7.79663 22.3996 9.35518 22.3996 11.5014ZM20.7977 11.5014C20.7977 10.1654 19.8452 9.25622 18.7443 9.25622C17.6434 9.25622 16.691 10.1716 16.691 11.5014C16.691 12.8187 17.6434 13.7464 18.7443 13.7464C19.8452 13.7464 20.7977 12.8249 20.7977 11.5014Z" fill="#E94235"/>
<path d="M30.5881 11.5014C30.5881 13.6351 28.9491 15.206 26.9329 15.206C24.9228 15.206 23.2776 13.6351 23.2776 11.5014C23.2776 9.35518 24.9166 7.79663 26.9329 7.79663C28.9491 7.79663 30.5881 9.35518 30.5881 11.5014ZM28.9924 11.5014C28.9924 10.1654 28.0399 9.25622 26.9391 9.25622C25.8382 9.25622 24.8856 10.1716 24.8856 11.5014C24.8856 12.8187 25.8382 13.7464 26.9391 13.7464C28.0399 13.7526 28.9924 12.8249 28.9924 11.5014Z" fill="#FABB05"/>
<path d="M38.5791 8.0192V14.6741C38.5791 17.414 36.9648 18.5334 35.0537 18.5334C33.2539 18.5334 32.1778 17.3274 31.7695 16.344L33.1859 15.7564C33.4395 16.3625 34.058 17.0738 35.0537 17.0738C36.2783 17.0738 37.0329 16.3131 37.0329 14.8968V14.3648H36.9772C36.6123 14.8163 35.9072 15.206 35.0228 15.206C33.1674 15.206 31.4727 13.5918 31.4727 11.5137C31.4727 9.42321 33.1735 7.79041 35.0228 7.79041C35.9072 7.79041 36.6123 8.18624 36.9772 8.61912H37.0329V8.0192H38.5791ZM37.1442 11.5198C37.1442 10.2149 36.2721 9.25617 35.165 9.25617C34.0394 9.25617 33.0993 10.2086 33.0993 11.5198C33.0993 12.8125 34.0394 13.7526 35.165 13.7526C36.2721 13.7526 37.1442 12.8125 37.1442 11.5198Z" fill="#4285F4"/>
<path d="M41.4301 4.09192V14.9896H39.8035V4.09192H41.4301Z" fill="#34A853"/>
<path d="M47.8376 12.7258L49.0994 13.567C48.6911 14.1732 47.7078 15.2122 46.0069 15.2122C43.8979 15.2122 42.3826 13.5856 42.3826 11.5075C42.3826 9.30563 43.9164 7.80273 45.8276 7.80273C47.751 7.80273 48.6911 9.3304 49.0004 10.1592L49.1674 10.5797L44.2133 12.6331C44.5906 13.3753 45.1843 13.7587 46.0131 13.7587C46.8418 13.7587 47.4171 13.3444 47.8376 12.7258ZM43.9474 11.3899L47.2625 10.0169C47.0769 9.55302 46.5326 9.23145 45.8832 9.23145C45.0544 9.23145 43.9041 9.96128 43.9474 11.3899Z" fill="#E94235"/>
</svg>
