<svg width="52" height="22" viewBox="0 0 52 22" fill="none" xmlns="http://www.w3.org/2000/svg">
<g opacity="0.6">
<path d="M13.1754 5.68489L13.5829 5.27737L13.1673 4.87815C12.1404 3.89178 10.7561 3.13116 8.83011 3.13116C5.35552 3.13116 2.42676 5.9592 2.42676 9.45405C2.42676 12.949 5.35552 15.777 8.83011 15.777C10.6906 15.777 12.1261 15.1603 13.2532 13.9937C14.4352 12.8091 14.7757 11.1799 14.7757 9.91797C14.7757 9.52394 14.7426 9.14573 14.6782 8.82378L14.5874 8.36974H8.26528V11.0765H11.9028C11.773 11.5258 11.5774 11.8512 11.3387 12.0903C10.8651 12.5583 10.1471 13.0764 8.83011 13.0764C6.83254 13.0764 5.26343 11.4714 5.26343 9.45405C5.26343 7.43678 6.83254 5.83177 8.83011 5.83177C9.91172 5.83177 10.6942 6.25404 11.283 6.805L11.682 7.17834L12.0683 6.79198L13.1754 5.68489Z" fill="white" stroke="white" stroke-width="1.12966"/>
<path d="M18.7444 15.7708C21.0708 15.7708 22.9645 13.9489 22.9645 11.5013C22.9645 9.04009 21.0696 7.23175 18.7444 7.23175C16.4194 7.23175 14.5244 9.04009 14.5244 11.5013C14.5244 13.9489 16.4181 15.7708 18.7444 15.7708ZM18.7444 9.82099C19.5081 9.82099 20.233 10.4513 20.233 11.5013C20.233 12.541 19.506 13.1816 18.7444 13.1816C17.9839 13.1816 17.2559 12.5359 17.2559 11.5013C17.2559 10.4565 17.9818 9.82099 18.7444 9.82099Z" fill="white" stroke="white" stroke-width="1.12966"/>
<path d="M26.9423 13.1816H26.9392C26.1786 13.1816 25.4506 12.5359 25.4506 11.5013C25.4506 10.4565 26.1766 9.82099 26.9392 9.82099C27.7027 9.82099 28.4277 10.4513 28.4277 11.5013C28.4277 12.544 27.6987 13.1859 26.9423 13.1816ZM26.933 15.7708C29.2593 15.7708 31.153 13.9489 31.153 11.5013C31.153 9.04009 29.258 7.23175 26.933 7.23175C24.6079 7.23175 22.7129 9.04009 22.7129 11.5013C22.7129 13.9495 24.6134 15.7708 26.933 15.7708Z" fill="white" stroke="white" stroke-width="1.12966"/>
<path d="M39.1443 8.01914V7.45434H36.4684V7.54661C36.0542 7.34947 35.5631 7.2255 35.0232 7.2255C32.8514 7.2255 30.9082 9.12176 30.9082 11.5136C30.9082 13.1154 31.7848 14.4868 33.0194 15.2141L32.9698 15.2347L31.5535 15.8223L31.0317 16.0387L31.2483 16.5605C31.7173 17.6904 32.9636 19.0982 35.0541 19.0982C36.1164 19.0982 37.153 18.786 37.9264 18.0368C38.7046 17.2831 39.1443 16.1567 39.1443 14.674V8.01914ZM33.7073 15.5384C34.1255 15.6894 34.5692 15.7708 35.0232 15.7708C35.5359 15.7708 36.0066 15.6603 36.4096 15.4777C36.3437 15.7708 36.2276 15.9831 36.0894 16.1316C35.8776 16.3592 35.547 16.509 35.0541 16.509C34.3674 16.509 33.9093 16.0212 33.7073 15.5384ZM35.1654 9.82094C35.8976 9.82094 36.5797 10.4598 36.5797 11.5198C36.5797 12.5588 35.9053 13.1877 35.1654 13.1877C34.3801 13.1877 33.6645 12.5296 33.6645 11.5198C33.6645 10.484 34.3871 9.82094 35.1654 9.82094ZM41.9953 4.09181V3.52698H39.239V15.5543H41.9953V4.09181Z" fill="white" stroke="white" stroke-width="1.12966"/>
<path d="M48.151 12.2559L47.6854 11.9455L47.3707 12.4083C47.0271 12.9135 46.6099 13.1939 46.0132 13.1939C45.6889 13.1939 45.4412 13.12 45.2452 12.9964C45.1925 12.9632 45.1411 12.9248 45.0912 12.8808L49.3838 11.1015L49.8978 10.8884L49.6925 10.3713L49.5275 9.956C49.1865 9.04663 48.1043 7.23792 45.8277 7.23792C43.581 7.23792 41.8179 9.01794 41.8179 11.5075C41.8179 13.8779 43.5667 15.777 46.007 15.777C47.9683 15.777 49.1031 14.5728 49.5679 13.8825L49.885 13.4118L49.4128 13.097L48.151 12.2559ZM46.218 9.83822L44.7605 10.4418C45.0464 10.0093 45.5217 9.79627 45.8833 9.79627C46.0078 9.79627 46.1195 9.81186 46.218 9.83822Z" fill="white" stroke="white" stroke-width="1.12966"/>
</g>
<path d="M8.82974 15.2122C5.65688 15.2122 2.99121 12.6269 2.99121 9.45411C2.99121 6.28131 5.65688 3.69604 8.82974 3.69604C10.5862 3.69604 11.8355 4.38257 12.7756 5.28555L11.6686 6.39264C10.9944 5.76178 10.0791 5.267 8.82974 5.267C6.51039 5.267 4.69823 7.13481 4.69823 9.45411C4.69823 11.7734 6.51039 13.6413 8.82974 13.6413C10.3326 13.6413 11.1861 13.0352 11.7366 12.4909C12.1881 12.0394 12.4787 11.3961 12.5901 10.5118H8.82974V8.93462H14.1239C14.1796 9.21289 14.2105 9.55307 14.2105 9.91802C14.2105 11.0993 13.8889 12.5589 12.8499 13.598C11.8355 14.6494 10.5491 15.2122 8.82974 15.2122Z" fill="#4285F4"/>
<path d="M22.3998 11.5013C22.3998 13.6351 20.7608 15.206 18.7445 15.206C16.7283 15.206 15.0894 13.6351 15.0894 11.5013C15.0894 9.35512 16.7283 7.79657 18.7445 7.79657C20.7608 7.79657 22.3998 9.35512 22.3998 11.5013ZM20.798 11.5013C20.798 10.1654 19.8454 9.25616 18.7445 9.25616C17.6437 9.25616 16.6912 10.1716 16.6912 11.5013C16.6912 12.8186 17.6437 13.7464 18.7445 13.7464C19.8454 13.7464 20.798 12.8248 20.798 11.5013Z" fill="#E94235"/>
<path d="M30.5883 11.5013C30.5883 13.6351 28.9493 15.206 26.9331 15.206C24.923 15.206 23.2778 13.6351 23.2778 11.5013C23.2778 9.35512 24.9168 7.79657 26.9331 7.79657C28.9493 7.79657 30.5883 9.35512 30.5883 11.5013ZM28.9926 11.5013C28.9926 10.1654 28.0402 9.25616 26.9393 9.25616C25.8384 9.25616 24.8859 10.1716 24.8859 11.5013C24.8859 12.8186 25.8384 13.7464 26.9393 13.7464C28.0402 13.7526 28.9926 12.8248 28.9926 11.5013Z" fill="#FABB05"/>
<path d="M38.5791 8.0192V14.6741C38.5791 17.414 36.9648 18.5334 35.0537 18.5334C33.2539 18.5334 32.1778 17.3274 31.7695 16.344L33.1859 15.7564C33.4395 16.3625 34.058 17.0738 35.0537 17.0738C36.2783 17.0738 37.0329 16.3131 37.0329 14.8968V14.3648H36.9772C36.6123 14.8163 35.9072 15.206 35.0228 15.206C33.1674 15.206 31.4727 13.5918 31.4727 11.5137C31.4727 9.42321 33.1735 7.79041 35.0228 7.79041C35.9072 7.79041 36.6123 8.18624 36.9772 8.61912H37.0329V8.0192H38.5791ZM37.1442 11.5198C37.1442 10.2149 36.2721 9.25617 35.165 9.25617C34.0394 9.25617 33.0993 10.2086 33.0993 11.5198C33.0993 12.8125 34.0394 13.7526 35.165 13.7526C36.2721 13.7526 37.1442 12.8125 37.1442 11.5198Z" fill="#4285F4"/>
<path d="M41.4303 4.09186V14.9895H39.8037V4.09186H41.4303Z" fill="#34A853"/>
<path d="M47.8378 12.7258L49.0996 13.567C48.6913 14.1732 47.708 15.2122 46.0071 15.2122C43.8981 15.2122 42.3828 13.5856 42.3828 11.5075C42.3828 9.30563 43.9167 7.80273 45.8278 7.80273C47.7512 7.80273 48.6913 9.3304 49.0006 10.1592L49.1676 10.5797L44.2135 12.6331C44.5908 13.3753 45.1846 13.7587 46.0133 13.7587C46.8421 13.7587 47.4173 13.3444 47.8378 12.7258ZM43.9476 11.3899L47.2627 10.0169C47.0771 9.55302 46.5329 9.23145 45.8835 9.23145C45.0547 9.23145 43.9043 9.96128 43.9476 11.3899Z" fill="#E94235"/>
</svg>
