<svg width="52" height="22" viewBox="0 0 52 22" fill="none" xmlns="http://www.w3.org/2000/svg">
<g opacity="0.6">
<path d="M13.1744 5.68483L13.582 5.27731L13.1663 4.87808C12.1394 3.89172 10.7551 3.1311 8.82913 3.1311C5.35454 3.1311 2.42578 5.95913 2.42578 9.45399C2.42578 12.9489 5.35454 15.7769 8.82913 15.7769C10.6896 15.7769 12.1251 15.1603 13.2523 13.9936C14.4343 12.8091 14.7747 11.1798 14.7747 9.91791C14.7747 9.52388 14.7416 9.14567 14.6772 8.82372L14.5864 8.36968H8.26431V11.0765H11.9019C11.772 11.5258 11.5765 11.8511 11.3377 12.0902C10.8642 12.5582 10.1461 13.0763 8.82913 13.0763C6.83156 13.0763 5.26245 11.4713 5.26245 9.45399C5.26245 7.43672 6.83156 5.83171 8.82913 5.83171C9.91074 5.83171 10.6932 6.25397 11.282 6.80494L11.681 7.17828L12.0673 6.79192L13.1744 5.68483Z" fill="white" stroke="white" stroke-width="1.12966"/>
<path d="M18.7435 15.7707C21.0698 15.7707 22.9635 13.9488 22.9635 11.5013C22.9635 9.04003 21.0686 7.23169 18.7435 7.23169C16.4184 7.23169 14.5234 9.04003 14.5234 11.5013C14.5234 13.9488 16.4171 15.7707 18.7435 15.7707ZM18.7435 9.82093C19.5071 9.82093 20.232 10.4513 20.232 11.5013C20.232 12.5409 19.5051 13.1815 18.7435 13.1815C17.9829 13.1815 17.2549 12.5358 17.2549 11.5013C17.2549 10.4564 17.9809 9.82093 18.7435 9.82093Z" fill="white" stroke="white" stroke-width="1.12966"/>
<path d="M26.9413 13.1815H26.9382C26.1776 13.1815 25.4496 12.5358 25.4496 11.5013C25.4496 10.4564 26.1756 9.82093 26.9382 9.82093C27.7018 9.82093 28.4267 10.4513 28.4267 11.5013C28.4267 12.5439 27.6977 13.1858 26.9413 13.1815ZM26.932 15.7707C29.2583 15.7707 31.152 13.9488 31.152 11.5013C31.152 9.04003 29.2571 7.23169 26.932 7.23169C24.6069 7.23169 22.7119 9.04003 22.7119 11.5013C22.7119 13.9494 24.6124 15.7707 26.932 15.7707Z" fill="white" stroke="white" stroke-width="1.12966"/>
<path d="M39.1433 8.01902V7.45421H36.4675V7.54649C36.0533 7.34934 35.5621 7.22538 35.0222 7.22538C32.8505 7.22538 30.9072 9.12164 30.9072 11.5135C30.9072 13.1153 31.7838 14.4867 33.0184 15.214L32.9688 15.2346L31.5526 15.8222L31.0307 16.0386L31.2473 16.5603C31.7164 17.6903 32.9626 19.0981 35.0531 19.0981C36.1154 19.0981 37.152 18.7859 37.9255 18.0367C38.7036 17.2829 39.1433 16.1566 39.1433 14.6739V8.01902ZM33.7064 15.5383C34.1245 15.6893 34.5682 15.7706 35.0222 15.7706C35.5349 15.7706 36.0056 15.6602 36.4086 15.4776C36.3427 15.7706 36.2266 15.9829 36.0884 16.1314C35.8767 16.359 35.546 16.5088 35.0531 16.5088C34.3664 16.5088 33.9083 16.0211 33.7064 15.5383ZM35.1644 9.82082C35.8966 9.82082 36.5788 10.4597 36.5788 11.5197C36.5788 12.5587 35.9043 13.1876 35.1644 13.1876C34.3791 13.1876 33.6635 12.5295 33.6635 11.5197C33.6635 10.4839 34.3861 9.82082 35.1644 9.82082ZM41.9943 4.09168V3.52686H39.2381V15.5542H41.9943V4.09168Z" fill="white" stroke="white" stroke-width="1.12966"/>
<path d="M48.1505 12.2558L47.6849 11.9454L47.3702 12.4081C47.0266 12.9134 46.6094 13.1938 46.0127 13.1938C45.6884 13.1938 45.4407 13.1199 45.2448 12.9963C45.192 12.9631 45.1406 12.9247 45.0907 12.8806L49.3833 11.1014L49.8973 10.8883L49.692 10.3711L49.5271 9.95588C49.186 9.04651 48.1038 7.23779 45.8272 7.23779C43.5805 7.23779 41.8174 9.01781 41.8174 11.5073C41.8174 13.8777 43.5662 15.7769 46.0065 15.7769C47.9678 15.7769 49.1026 14.5726 49.5674 13.8824L49.8845 13.4117L49.4123 13.0969L48.1505 12.2558ZM46.2175 9.83809L44.7601 10.4417C45.0459 10.0092 45.5212 9.79615 45.8829 9.79615C46.0073 9.79615 46.119 9.81173 46.2175 9.83809Z" fill="white" stroke="white" stroke-width="1.12966"/>
</g>
<path d="M8.82974 15.2119C5.65688 15.2119 2.99121 12.6267 2.99121 9.45386C2.99121 6.28106 5.65688 3.6958 8.82974 3.6958C10.5862 3.6958 11.8355 4.38232 12.7756 5.28531L11.6686 6.39239C10.9944 5.76154 10.0791 5.26675 8.82974 5.26675C6.51039 5.26675 4.69823 7.13457 4.69823 9.45386C4.69823 11.7732 6.51039 13.641 8.82974 13.641C10.3326 13.641 11.1861 13.0349 11.7366 12.4907C12.1881 12.0391 12.4787 11.3959 12.5901 10.5115H8.82974V8.93437H14.1239C14.1796 9.21265 14.2105 9.55282 14.2105 9.91778C14.2105 11.099 13.8889 12.5587 12.8499 13.5977C11.8355 14.6491 10.5491 15.2119 8.82974 15.2119Z" fill="#4285F4"/>
<path d="M22.3993 11.5011C22.3993 13.6349 20.7603 15.2058 18.7441 15.2058C16.7278 15.2058 15.0889 13.6349 15.0889 11.5011C15.0889 9.35493 16.7278 7.79639 18.7441 7.79639C20.7603 7.79639 22.3993 9.35493 22.3993 11.5011ZM20.7975 11.5011C20.7975 10.1652 19.8449 9.25598 18.7441 9.25598C17.6432 9.25598 16.6907 10.1714 16.6907 11.5011C16.6907 12.8185 17.6432 13.7462 18.7441 13.7462C19.8449 13.7462 20.7975 12.8246 20.7975 11.5011Z" fill="#E94235"/>
<path d="M30.5878 11.5011C30.5878 13.6349 28.9488 15.2058 26.9326 15.2058C24.9225 15.2058 23.2773 13.6349 23.2773 11.5011C23.2773 9.35493 24.9163 7.79639 26.9326 7.79639C28.9488 7.79639 30.5878 9.35493 30.5878 11.5011ZM28.9921 11.5011C28.9921 10.1652 28.0397 9.25598 26.9388 9.25598C25.8379 9.25598 24.8854 10.1714 24.8854 11.5011C24.8854 12.8185 25.8379 13.7462 26.9388 13.7462C28.0397 13.7524 28.9921 12.8246 28.9921 11.5011Z" fill="#FABB05"/>
<path d="M38.5791 8.01908V14.674C38.5791 17.4139 36.9648 18.5333 35.0537 18.5333C33.2539 18.5333 32.1778 17.3273 31.7695 16.3439L33.1859 15.7563C33.4395 16.3624 34.058 17.0737 35.0537 17.0737C36.2783 17.0737 37.0329 16.313 37.0329 14.8966V14.3647H36.9772C36.6123 14.8162 35.9072 15.2059 35.0228 15.2059C33.1674 15.2059 31.4727 13.5917 31.4727 11.5136C31.4727 9.42309 33.1735 7.79028 35.0228 7.79028C35.9072 7.79028 36.6123 8.18611 36.9772 8.619H37.0329V8.01908H38.5791ZM37.1442 11.5197C37.1442 10.2147 36.2721 9.25605 35.165 9.25605C34.0394 9.25605 33.0993 10.2085 33.0993 11.5197C33.0993 12.8124 34.0394 13.7525 35.165 13.7525C36.2721 13.7525 37.1442 12.8124 37.1442 11.5197Z" fill="#4285F4"/>
<path d="M41.4294 4.0918V14.9895H39.8027V4.0918H41.4294Z" fill="#34A853"/>
<path d="M47.8369 12.7258L49.0986 13.567C48.6904 14.1732 47.707 15.2122 46.0061 15.2122C43.8972 15.2122 42.3818 13.5856 42.3818 11.5075C42.3818 9.30563 43.9157 7.80273 45.8268 7.80273C47.7503 7.80273 48.6904 9.3304 48.9997 10.1592L49.1666 10.5797L44.2126 12.6331C44.5899 13.3753 45.1836 13.7587 46.0123 13.7587C46.8411 13.7587 47.4163 13.3444 47.8369 12.7258ZM43.9466 11.3899L47.2617 10.0169C47.0762 9.55302 46.5319 9.23145 45.8825 9.23145C45.0537 9.23145 43.9033 9.96128 43.9466 11.3899Z" fill="#E94235"/>
</svg>
