<svg width="52" height="22" viewBox="0 0 52 22" fill="none" xmlns="http://www.w3.org/2000/svg">
<g opacity="0.6">
<path d="M13.1754 5.68483L13.5829 5.27731L13.1673 4.87808C12.1404 3.89172 10.7561 3.1311 8.83011 3.1311C5.35552 3.1311 2.42676 5.95913 2.42676 9.45399C2.42676 12.9489 5.35552 15.7769 8.83011 15.7769C10.6906 15.7769 12.1261 15.1603 13.2532 13.9936C14.4352 12.8091 14.7757 11.1798 14.7757 9.91791C14.7757 9.52388 14.7426 9.14567 14.6782 8.82372L14.5874 8.36968H8.26528V11.0765H11.9028C11.773 11.5258 11.5774 11.8511 11.3387 12.0902C10.8651 12.5582 10.1471 13.0763 8.83011 13.0763C6.83254 13.0763 5.26343 11.4713 5.26343 9.45399C5.26343 7.43672 6.83254 5.83171 8.83011 5.83171C9.91172 5.83171 10.6942 6.25397 11.283 6.80494L11.682 7.17828L12.0683 6.79192L13.1754 5.68483Z" fill="white" stroke="white" stroke-width="1.12966"/>
<path d="M18.7444 15.7707C21.0708 15.7707 22.9645 13.9488 22.9645 11.5013C22.9645 9.04003 21.0696 7.23169 18.7444 7.23169C16.4194 7.23169 14.5244 9.04003 14.5244 11.5013C14.5244 13.9488 16.4181 15.7707 18.7444 15.7707ZM18.7444 9.82093C19.5081 9.82093 20.233 10.4513 20.233 11.5013C20.233 12.5409 19.506 13.1815 18.7444 13.1815C17.9839 13.1815 17.2559 12.5358 17.2559 11.5013C17.2559 10.4564 17.9818 9.82093 18.7444 9.82093Z" fill="white" stroke="white" stroke-width="1.12966"/>
<path d="M26.9423 13.1815H26.9392C26.1786 13.1815 25.4506 12.5358 25.4506 11.5013C25.4506 10.4564 26.1766 9.82093 26.9392 9.82093C27.7027 9.82093 28.4277 10.4513 28.4277 11.5013C28.4277 12.5439 27.6987 13.1858 26.9423 13.1815ZM26.933 15.7707C29.2593 15.7707 31.153 13.9488 31.153 11.5013C31.153 9.04003 29.258 7.23169 26.933 7.23169C24.6079 7.23169 22.7129 9.04003 22.7129 11.5013C22.7129 13.9494 24.6134 15.7707 26.933 15.7707Z" fill="white" stroke="white" stroke-width="1.12966"/>
<path d="M39.1443 8.01902V7.45421H36.4684V7.54649C36.0542 7.34934 35.5631 7.22538 35.0232 7.22538C32.8514 7.22538 30.9082 9.12164 30.9082 11.5135C30.9082 13.1153 31.7848 14.4867 33.0194 15.214L32.9698 15.2346L31.5535 15.8222L31.0317 16.0386L31.2483 16.5603C31.7173 17.6903 32.9636 19.0981 35.0541 19.0981C36.1164 19.0981 37.153 18.7859 37.9264 18.0367C38.7046 17.2829 39.1443 16.1566 39.1443 14.6739V8.01902ZM33.7073 15.5383C34.1255 15.6893 34.5692 15.7706 35.0232 15.7706C35.5359 15.7706 36.0066 15.6602 36.4096 15.4776C36.3437 15.7706 36.2276 15.9829 36.0894 16.1314C35.8776 16.359 35.547 16.5088 35.0541 16.5088C34.3674 16.5088 33.9093 16.0211 33.7073 15.5383ZM35.1654 9.82082C35.8976 9.82082 36.5797 10.4597 36.5797 11.5197C36.5797 12.5587 35.9053 13.1876 35.1654 13.1876C34.3801 13.1876 33.6645 12.5295 33.6645 11.5197C33.6645 10.4839 34.3871 9.82082 35.1654 9.82082ZM41.9953 4.09168V3.52686H39.239V15.5542H41.9953V4.09168Z" fill="white" stroke="white" stroke-width="1.12966"/>
<path d="M48.151 12.2558L47.6854 11.9454L47.3707 12.4081C47.0271 12.9134 46.6099 13.1938 46.0132 13.1938C45.6889 13.1938 45.4412 13.1199 45.2452 12.9963C45.1925 12.9631 45.1411 12.9247 45.0912 12.8806L49.3838 11.1014L49.8978 10.8883L49.6925 10.3711L49.5275 9.95588C49.1865 9.04651 48.1043 7.23779 45.8277 7.23779C43.581 7.23779 41.8179 9.01781 41.8179 11.5073C41.8179 13.8777 43.5667 15.7769 46.007 15.7769C47.9683 15.7769 49.1031 14.5726 49.5679 13.8824L49.885 13.4117L49.4128 13.0969L48.151 12.2558ZM46.218 9.83809L44.7605 10.4417C45.0464 10.0092 45.5217 9.79615 45.8833 9.79615C46.0078 9.79615 46.1195 9.81173 46.218 9.83809Z" fill="white" stroke="white" stroke-width="1.12966"/>
</g>
<path d="M8.82974 15.2119C5.65688 15.2119 2.99121 12.6267 2.99121 9.45386C2.99121 6.28106 5.65688 3.6958 8.82974 3.6958C10.5862 3.6958 11.8355 4.38232 12.7756 5.28531L11.6686 6.39239C10.9944 5.76154 10.0791 5.26675 8.82974 5.26675C6.51039 5.26675 4.69823 7.13457 4.69823 9.45386C4.69823 11.7732 6.51039 13.641 8.82974 13.641C10.3326 13.641 11.1861 13.0349 11.7366 12.4907C12.1881 12.0391 12.4787 11.3959 12.5901 10.5115H8.82974V8.93437H14.1239C14.1796 9.21265 14.2105 9.55282 14.2105 9.91778C14.2105 11.099 13.8889 12.5587 12.8499 13.5977C11.8355 14.6491 10.5491 15.2119 8.82974 15.2119Z" fill="#4285F4"/>
<path d="M22.3998 11.5011C22.3998 13.6349 20.7608 15.2058 18.7445 15.2058C16.7283 15.2058 15.0894 13.6349 15.0894 11.5011C15.0894 9.35493 16.7283 7.79639 18.7445 7.79639C20.7608 7.79639 22.3998 9.35493 22.3998 11.5011ZM20.798 11.5011C20.798 10.1652 19.8454 9.25598 18.7445 9.25598C17.6437 9.25598 16.6912 10.1714 16.6912 11.5011C16.6912 12.8185 17.6437 13.7462 18.7445 13.7462C19.8454 13.7462 20.798 12.8246 20.798 11.5011Z" fill="#E94235"/>
<path d="M30.5883 11.5011C30.5883 13.6349 28.9493 15.2058 26.9331 15.2058C24.923 15.2058 23.2778 13.6349 23.2778 11.5011C23.2778 9.35493 24.9168 7.79639 26.9331 7.79639C28.9493 7.79639 30.5883 9.35493 30.5883 11.5011ZM28.9926 11.5011C28.9926 10.1652 28.0402 9.25598 26.9393 9.25598C25.8384 9.25598 24.8859 10.1714 24.8859 11.5011C24.8859 12.8185 25.8384 13.7462 26.9393 13.7462C28.0402 13.7524 28.9926 12.8246 28.9926 11.5011Z" fill="#FABB05"/>
<path d="M38.5791 8.01908V14.674C38.5791 17.4139 36.9648 18.5333 35.0537 18.5333C33.2539 18.5333 32.1778 17.3273 31.7695 16.3439L33.1859 15.7563C33.4395 16.3624 34.058 17.0737 35.0537 17.0737C36.2783 17.0737 37.0329 16.313 37.0329 14.8966V14.3647H36.9772C36.6123 14.8162 35.9072 15.2059 35.0228 15.2059C33.1674 15.2059 31.4727 13.5917 31.4727 11.5136C31.4727 9.42309 33.1735 7.79028 35.0228 7.79028C35.9072 7.79028 36.6123 8.18611 36.9772 8.619H37.0329V8.01908H38.5791ZM37.1442 11.5197C37.1442 10.2147 36.2721 9.25605 35.165 9.25605C34.0394 9.25605 33.0993 10.2085 33.0993 11.5197C33.0993 12.8124 34.0394 13.7525 35.165 13.7525C36.2721 13.7525 37.1442 12.8124 37.1442 11.5197Z" fill="#4285F4"/>
<path d="M41.4303 4.0918V14.9895H39.8037V4.0918H41.4303Z" fill="#34A853"/>
<path d="M47.8378 12.7258L49.0996 13.567C48.6913 14.1732 47.708 15.2122 46.0071 15.2122C43.8981 15.2122 42.3828 13.5856 42.3828 11.5075C42.3828 9.30563 43.9167 7.80273 45.8278 7.80273C47.7512 7.80273 48.6913 9.3304 49.0006 10.1592L49.1676 10.5797L44.2135 12.6331C44.5908 13.3753 45.1846 13.7587 46.0133 13.7587C46.8421 13.7587 47.4173 13.3444 47.8378 12.7258ZM43.9476 11.3899L47.2627 10.0169C47.0771 9.55302 46.5329 9.23145 45.8835 9.23145C45.0547 9.23145 43.9043 9.96128 43.9476 11.3899Z" fill="#E94235"/>
</svg>
